<svg width="700" height="700" viewBox="0 0 700 700" fill="none" xmlns="http://www.w3.org/2000/svg">
<g clip-path="url(#clip0_20_61)">
<path d="M0 100C0 44.7715 44.7715 0 100 0H600C655.228 0 700 44.7715 700 100V600C700 655.229 655.228 700 600 700H100C44.7715 700 0 655.228 0 600V100Z" fill="url(#paint0_linear_20_61)"/>
<g style="mix-blend-mode:screen" filter="url(#filter0_f_20_61)">
<path d="M460.568 599.968H141V561.904C141 492.572 152.298 434.116 152.298 434.116C160.906 381.098 182.425 336.236 182.425 336.236C182.425 336.236 186.729 319.47 211.477 287.297C236.225 255.123 280.34 228.387 280.34 228.387C308.316 212.074 330.911 201.652 375.027 192.136C419.142 182.619 420.218 184.885 420.218 184.885L497.689 299.985C497.689 299.985 472.941 341.674 466.485 365.238C460.029 388.802 453.574 403.302 449.27 441.367C444.966 479.431 446.58 508.433 446.58 508.433C446.58 508.433 447.656 532.903 454.112 566.435L460.568 599.968Z" fill="#F34545" fill-opacity="0.85"/>
<g filter="url(#filter1_d_20_61)">
<path d="M647 236.769C647 312.304 585.766 373.538 510.231 373.538C434.696 373.538 373.462 312.304 373.462 236.769C373.462 161.234 434.696 100 510.231 100C585.766 100 647 161.234 647 236.769Z" fill="#F34545" fill-opacity="0.85" shape-rendering="crispEdges"/>
</g>
</g>
<g style="mix-blend-mode:screen" filter="url(#filter2_f_20_61)">
<path d="M439.356 629.91H104V585.226C104 503.838 115.856 435.217 115.856 435.217C124.889 372.979 147.472 320.316 147.472 320.316C147.472 320.316 151.989 300.634 177.959 262.866C203.929 225.098 250.224 193.713 250.224 193.713C279.582 174.563 303.294 162.328 349.589 151.157C395.884 139.986 397.013 142.646 397.013 142.646L478.312 277.761C478.312 277.761 452.342 326.7 445.567 354.361C438.792 382.022 432.017 399.045 427.5 443.728C422.984 488.412 424.677 522.456 424.677 522.456C424.677 522.456 425.807 551.182 432.582 590.546L439.356 629.91Z" fill="#F34545" fill-opacity="0.67"/>
<g filter="url(#filter3_d_20_61)">
<path d="M635 194.801C635 278.638 567.036 346.602 483.199 346.602C399.362 346.602 331.398 278.638 331.398 194.801C331.398 110.964 399.362 43 483.199 43C567.036 43 635 110.964 635 194.801Z" fill="#F34545" fill-opacity="0.67" shape-rendering="crispEdges"/>
</g>
</g>
<path d="M406.824 689.157H104V652.116C104 584.648 114.706 527.763 114.706 527.763C122.863 476.169 143.255 432.513 143.255 432.513C143.255 432.513 147.333 416.197 170.784 384.888C194.235 353.58 236.039 327.562 236.039 327.562C262.549 311.688 283.961 301.545 325.765 292.285C367.569 283.025 368.588 285.229 368.588 285.229L442 397.236C442 397.236 418.549 437.805 412.431 460.735C406.314 483.666 400.196 497.777 396.118 534.818C392.039 571.859 393.569 600.082 393.569 600.082C393.569 600.082 394.588 623.894 400.706 656.526L406.824 689.157Z" fill="black"/>
<path d="M104 689.157H93C93 695.232 97.9249 700.157 104 700.157V689.157ZM406.824 689.157V700.157C410.096 700.157 413.198 698.7 415.288 696.182C417.378 693.664 418.238 690.347 417.635 687.13L406.824 689.157ZM400.706 656.526L389.894 658.553L389.894 658.553L400.706 656.526ZM393.569 600.082L404.559 599.611L404.556 599.549L404.552 599.486L393.569 600.082ZM396.118 534.818L407.052 536.022L407.052 536.022L396.118 534.818ZM442 397.236L451.523 402.741L454.915 396.874L451.2 391.206L442 397.236ZM368.588 285.229L358.604 289.846L358.944 290.582L359.388 291.259L368.588 285.229ZM325.765 292.285L328.144 303.025L328.144 303.025L325.765 292.285ZM170.784 384.888L161.98 378.294L161.98 378.294L170.784 384.888ZM143.255 432.513L153.221 437.169L153.67 436.209L153.927 435.181L143.255 432.513ZM236.039 327.562L230.388 318.125L230.307 318.174L230.227 318.223L236.039 327.562ZM114.706 527.763L125.516 529.797L125.546 529.639L125.571 529.48L114.706 527.763ZM104 689.157V700.157H406.824V689.157V678.157H104V689.157ZM406.824 689.157L417.635 687.13L411.518 654.499L400.706 656.526L389.894 658.553L396.012 691.184L406.824 689.157ZM400.706 656.526L411.518 654.499C408.526 638.542 406.782 624.742 405.787 614.954C405.29 610.064 404.981 606.184 404.797 603.547C404.705 602.229 404.644 601.222 404.607 600.557C404.589 600.224 404.576 599.976 404.568 599.817C404.564 599.738 404.562 599.68 404.56 599.646C404.559 599.629 404.559 599.617 404.559 599.611C404.558 599.608 404.558 599.607 404.558 599.607C404.558 599.607 404.558 599.607 404.558 599.608C404.558 599.608 404.558 599.609 404.558 599.609C404.558 599.61 404.559 599.611 393.569 600.082C382.579 600.552 382.579 600.553 382.579 600.554C382.579 600.555 382.579 600.556 382.579 600.557C382.579 600.56 382.579 600.562 382.579 600.565C382.579 600.571 382.58 600.578 382.58 600.587C382.581 600.604 382.582 600.627 382.583 600.656C382.586 600.713 382.59 600.794 382.595 600.897C382.605 601.103 382.62 601.398 382.641 601.78C382.684 602.544 382.751 603.653 382.85 605.077C383.049 607.925 383.377 612.038 383.899 617.179C384.944 627.455 386.768 641.878 389.894 658.553L400.706 656.526ZM393.569 600.082C404.552 599.486 404.553 599.487 404.553 599.488C404.553 599.488 404.553 599.489 404.553 599.49C404.553 599.49 404.553 599.491 404.553 599.49C404.553 599.49 404.553 599.488 404.552 599.484C404.552 599.477 404.551 599.462 404.55 599.442C404.548 599.4 404.545 599.331 404.54 599.236C404.531 599.046 404.518 598.751 404.502 598.356C404.47 597.565 404.428 596.375 404.39 594.821C404.313 591.714 404.251 587.16 404.313 581.46C404.438 570.05 405.06 554.106 407.052 536.022L396.118 534.818L385.184 533.614C383.096 552.572 382.445 569.259 382.314 581.22C382.249 587.206 382.314 592.023 382.397 595.365C382.438 597.036 382.484 598.34 382.52 599.237C382.538 599.686 382.553 600.034 382.565 600.275C382.57 600.396 382.575 600.49 382.578 600.557C382.58 600.591 382.582 600.618 382.583 600.638C382.583 600.648 382.584 600.656 382.584 600.662C382.584 600.666 382.584 600.668 382.584 600.671C382.584 600.672 382.585 600.674 382.585 600.674C382.585 600.675 382.585 600.677 393.569 600.082ZM396.118 534.818L407.052 536.022C411.01 500.071 416.741 487.256 423.06 463.571L412.431 460.735L401.803 457.9C395.887 480.075 389.382 495.483 385.184 533.614L396.118 534.818ZM412.431 460.735L423.06 463.571C425.786 453.353 432.673 438.409 439.311 425.38C442.557 419.008 445.621 413.329 447.873 409.243C448.999 407.202 449.918 405.564 450.553 404.442C450.871 403.881 451.117 403.449 451.282 403.161C451.365 403.016 451.427 402.908 451.468 402.838C451.488 402.802 451.503 402.776 451.512 402.76C451.517 402.752 451.52 402.746 451.522 402.743C451.523 402.741 451.524 402.74 451.524 402.74C451.524 402.74 451.524 402.74 451.524 402.74C451.524 402.74 451.523 402.741 442 397.236C432.477 391.731 432.476 391.731 432.476 391.732C432.475 391.733 432.475 391.734 432.474 391.735C432.473 391.737 432.471 391.74 432.469 391.743C432.466 391.75 432.46 391.759 432.454 391.77C432.441 391.793 432.422 391.826 432.398 391.868C432.349 391.952 432.279 392.074 432.188 392.233C432.007 392.55 431.743 393.012 431.407 393.606C430.736 394.791 429.776 396.502 428.607 398.622C426.271 402.86 423.09 408.756 419.708 415.393C413.091 428.381 405.195 445.187 401.803 457.9L412.431 460.735ZM442 397.236L451.2 391.206L377.788 279.2L368.588 285.229L359.388 291.259L432.8 403.266L442 397.236ZM368.588 285.229C378.572 280.612 378.533 280.529 378.493 280.445C378.48 280.418 378.439 280.335 378.412 280.28C378.357 280.171 378.3 280.063 378.242 279.957C378.126 279.744 378.004 279.537 377.877 279.338C377.624 278.937 377.353 278.568 377.073 278.228C376.513 277.548 375.924 276.998 375.363 276.558C374.267 275.697 373.201 275.19 372.418 274.888C370.926 274.314 369.556 274.139 368.684 274.067C366.873 273.917 364.609 274.023 361.643 274.351C355.558 275.025 344.386 276.893 323.386 281.545L325.765 292.285L328.144 303.025C348.947 298.416 359.187 296.757 364.063 296.218C366.578 295.94 367.181 296.018 366.868 295.992C366.744 295.982 365.781 295.908 364.508 295.417C363.834 295.158 362.831 294.689 361.77 293.856C361.227 293.429 360.649 292.891 360.095 292.219C359.818 291.883 359.55 291.516 359.297 291.118C359.171 290.919 359.05 290.714 358.934 290.501C358.876 290.395 358.819 290.287 358.764 290.178C358.737 290.123 358.696 290.041 358.683 290.013C358.643 289.93 358.604 289.846 368.588 285.229ZM170.784 384.888L161.98 378.294C149.889 394.437 142.641 406.915 138.365 415.567C136.226 419.893 134.831 423.261 133.945 425.649C133.502 426.843 133.187 427.792 132.97 428.493C132.861 428.843 132.777 429.131 132.714 429.357C132.682 429.469 132.656 429.567 132.634 429.648C132.623 429.689 132.614 429.726 132.605 429.759C132.601 429.775 132.597 429.791 132.593 429.805C132.592 429.812 132.59 429.819 132.588 429.826C132.587 429.829 132.586 429.834 132.586 429.836C132.584 429.841 132.583 429.846 143.255 432.513C153.927 435.181 153.925 435.185 153.924 435.19C153.924 435.191 153.923 435.196 153.922 435.199C153.921 435.205 153.919 435.21 153.918 435.215C153.915 435.226 153.913 435.235 153.911 435.244C153.906 435.261 153.903 435.274 153.9 435.283C153.896 435.3 153.895 435.302 153.899 435.288C153.907 435.259 153.934 435.166 153.982 435.009C154.08 434.695 154.266 434.125 154.572 433.3C155.184 431.651 156.274 428.983 158.086 425.316C161.711 417.983 168.229 406.649 179.588 391.483L170.784 384.888ZM236.039 327.562L241.691 337C267.307 321.66 287.623 312.001 328.144 303.025L325.765 292.285L323.386 281.545C280.299 291.09 257.791 301.715 230.388 318.125L236.039 327.562ZM170.784 384.888L179.588 391.483C190.451 376.98 205.876 363.352 218.963 353.165C225.44 348.122 231.209 344.026 235.347 341.199C237.413 339.787 239.067 338.696 240.191 337.965C240.753 337.6 241.182 337.325 241.464 337.146C241.604 337.057 241.708 336.991 241.774 336.95C241.806 336.93 241.829 336.915 241.842 336.907C241.849 336.903 241.853 336.901 241.854 336.9C241.855 336.899 241.855 336.899 241.855 336.899C241.855 336.9 241.854 336.9 241.854 336.9C241.853 336.901 241.851 336.902 236.039 327.562C230.227 318.223 230.225 318.224 230.224 318.225C230.223 318.226 230.221 318.227 230.22 318.228C230.217 318.23 230.213 318.232 230.209 318.235C230.2 318.24 230.189 318.247 230.175 318.256C230.148 318.273 230.111 318.296 230.063 318.326C229.969 318.385 229.836 318.469 229.664 318.578C229.322 318.796 228.83 319.11 228.203 319.518C226.95 320.333 225.154 321.518 222.935 323.035C218.501 326.064 212.354 330.429 205.449 335.805C191.771 346.453 174.568 361.488 161.98 378.294L170.784 384.888ZM114.706 527.763L125.571 529.48C129.512 504.549 136.436 481.413 142.414 464.446C145.396 455.983 148.124 449.106 150.096 444.368C151.082 442 151.878 440.169 152.42 438.946C152.691 438.334 152.898 437.874 153.035 437.575C153.103 437.425 153.153 437.316 153.185 437.248C153.2 437.214 153.211 437.19 153.217 437.177C153.22 437.17 153.222 437.166 153.223 437.165C153.223 437.164 153.223 437.164 153.223 437.165C153.223 437.165 153.222 437.166 153.222 437.166C153.222 437.167 153.221 437.169 143.255 432.513C133.289 427.858 133.288 427.859 133.287 427.861C133.287 427.862 133.286 427.864 133.285 427.866C133.283 427.869 133.282 427.873 133.279 427.877C133.275 427.887 133.27 427.899 133.263 427.913C133.249 427.942 133.231 427.982 133.208 428.032C133.162 428.132 133.096 428.274 133.013 428.457C132.847 428.823 132.608 429.351 132.306 430.034C131.701 431.399 130.839 433.382 129.786 435.913C127.68 440.973 124.8 448.234 121.664 457.135C115.407 474.894 108.056 499.382 103.841 526.045L114.706 527.763ZM104 652.116H115C115 618.933 117.635 588.294 120.277 565.929C121.597 554.758 122.915 545.679 123.9 539.413C124.392 536.28 124.801 533.852 125.084 532.219C125.226 531.403 125.336 530.785 125.41 530.377C125.447 530.174 125.474 530.023 125.492 529.925C125.501 529.877 125.508 529.842 125.512 529.82C125.514 529.809 125.515 529.802 125.516 529.798C125.516 529.796 125.516 529.795 125.516 529.795C125.516 529.795 125.516 529.795 125.516 529.795C125.516 529.796 125.516 529.797 114.706 527.763C103.896 525.728 103.895 525.729 103.895 525.731C103.895 525.732 103.895 525.734 103.894 525.735C103.894 525.738 103.893 525.743 103.892 525.748C103.89 525.758 103.888 525.771 103.884 525.788C103.878 525.822 103.869 525.869 103.858 525.93C103.836 526.052 103.803 526.229 103.762 526.458C103.679 526.917 103.559 527.587 103.408 528.458C103.106 530.2 102.678 532.743 102.166 535.997C101.144 542.505 99.7856 551.864 98.4289 563.348C95.7182 586.293 93 617.831 93 652.116H104ZM104 689.157H115V652.116H104H93V689.157H104Z" fill="black"/>
<g filter="url(#filter4_d_20_61)">
<path d="M678 271.5C678 360.694 605.694 433 516.5 433C427.306 433 355 360.694 355 271.5C355 182.306 427.306 110 516.5 110C605.694 110 678 182.306 678 271.5Z" fill="black"/>
<path d="M516.5 120.5C599.895 120.5 667.5 188.105 667.5 271.5C667.5 354.895 599.895 422.5 516.5 422.5C433.105 422.5 365.5 354.895 365.5 271.5C365.5 188.105 433.105 120.5 516.5 120.5Z" stroke="black" stroke-width="21"/>
</g>
<ellipse cx="514.321" cy="284.622" rx="40" ry="46.5" transform="rotate(9.7859 514.321 284.622)" fill="white"/>
<ellipse cx="526.251" cy="293.033" rx="19.5917" ry="24.5" transform="rotate(11.9818 526.251 293.033)" fill="black"/>
<ellipse cx="606" cy="309.316" rx="37.1924" ry="43.2362" transform="rotate(9.7859 606 309.316)" fill="white"/>
<ellipse cx="618.913" cy="316.931" rx="17.5665" ry="22.7804" transform="rotate(11.9818 618.913 316.931)" fill="black"/>
</g>
<defs>
<filter id="filter0_f_20_61" x="41" y="0" width="706" height="699.968" filterUnits="userSpaceOnUse" color-interpolation-filters="sRGB">
<feFlood flood-opacity="0" result="BackgroundImageFix"/>
<feBlend mode="normal" in="SourceGraphic" in2="BackgroundImageFix" result="shape"/>
<feGaussianBlur stdDeviation="50" result="effect1_foregroundBlur_20_61"/>
</filter>
<filter id="filter1_d_20_61" x="369.462" y="96" width="281.538" height="281.538" filterUnits="userSpaceOnUse" color-interpolation-filters="sRGB">
<feFlood flood-opacity="0" result="BackgroundImageFix"/>
<feColorMatrix in="SourceAlpha" type="matrix" values="0 0 0 0 0 0 0 0 0 0 0 0 0 0 0 0 0 0 127 0" result="hardAlpha"/>
<feOffset/>
<feGaussianBlur stdDeviation="2"/>
<feComposite in2="hardAlpha" operator="out"/>
<feColorMatrix type="matrix" values="0 0 0 0 0 0 0 0 0 0 0 0 0 0 0 0 0 0 0.25 0"/>
<feBlend mode="normal" in2="BackgroundImageFix" result="effect1_dropShadow_20_61"/>
<feBlend mode="normal" in="SourceGraphic" in2="effect1_dropShadow_20_61" result="shape"/>
</filter>
<filter id="filter2_f_20_61" x="4" y="-57" width="731" height="786.91" filterUnits="userSpaceOnUse" color-interpolation-filters="sRGB">
<feFlood flood-opacity="0" result="BackgroundImageFix"/>
<feBlend mode="normal" in="SourceGraphic" in2="BackgroundImageFix" result="shape"/>
<feGaussianBlur stdDeviation="50" result="effect1_foregroundBlur_20_61"/>
</filter>
<filter id="filter3_d_20_61" x="327.398" y="39" width="311.602" height="311.602" filterUnits="userSpaceOnUse" color-interpolation-filters="sRGB">
<feFlood flood-opacity="0" result="BackgroundImageFix"/>
<feColorMatrix in="SourceAlpha" type="matrix" values="0 0 0 0 0 0 0 0 0 0 0 0 0 0 0 0 0 0 127 0" result="hardAlpha"/>
<feOffset/>
<feGaussianBlur stdDeviation="2"/>
<feComposite in2="hardAlpha" operator="out"/>
<feColorMatrix type="matrix" values="0 0 0 0 0 0 0 0 0 0 0 0 0 0 0 0 0 0 0.25 0"/>
<feBlend mode="normal" in2="BackgroundImageFix" result="effect1_dropShadow_20_61"/>
<feBlend mode="normal" in="SourceGraphic" in2="effect1_dropShadow_20_61" result="shape"/>
</filter>
<filter id="filter4_d_20_61" x="351" y="106" width="331" height="331" filterUnits="userSpaceOnUse" color-interpolation-filters="sRGB">
<feFlood flood-opacity="0" result="BackgroundImageFix"/>
<feColorMatrix in="SourceAlpha" type="matrix" values="0 0 0 0 0 0 0 0 0 0 0 0 0 0 0 0 0 0 127 0" result="hardAlpha"/>
<feOffset/>
<feGaussianBlur stdDeviation="2"/>
<feComposite in2="hardAlpha" operator="out"/>
<feColorMatrix type="matrix" values="0 0 0 0 0 0 0 0 0 0 0 0 0 0 0 0 0 0 0.25 0"/>
<feBlend mode="normal" in2="BackgroundImageFix" result="effect1_dropShadow_20_61"/>
<feBlend mode="normal" in="SourceGraphic" in2="effect1_dropShadow_20_61" result="shape"/>
</filter>
<linearGradient id="paint0_linear_20_61" x1="350" y1="0" x2="350" y2="700" gradientUnits="userSpaceOnUse">
<stop stop-color="#FF2B2F"/>
<stop offset="1" stop-color="#FF9FA1"/>
</linearGradient>
<clipPath id="clip0_20_61">
<rect width="700" height="700" fill="white"/>
</clipPath>
</defs>
</svg>
